# Made in Blockbench 4.12.2
mtllib vitasaw.mtl

o handle
v -0.25290291308792046 0.5247779130879203 0.03125
v -0.25290291308792046 0.5247779130879203 -0.03125
v -0.47387378220871657 0.3038070439671242 0.03125
v -0.47387378220871657 0.3038070439671242 -0.03125
v -0.29709708691207964 0.5689720869120796 -0.03125
v -0.29709708691207964 0.5689720869120796 0.03125
v -0.5180679560328758 0.34800121779128346 -0.03125
v -0.5180679560328758 0.34800121779128346 0.03125
vt 0 0.4375
vt 0.0625 0.4375
vt 0.0625 0.125
vt 0 0.125
vt 0 0.4375
vt 0.0625 0.4375
vt 0.0625 0.125
vt 0 0.125
vt 0 0.4375
vt 0.0625 0.4375
vt 0.0625 0.125
vt 0 0.125
vt 0 0.4375
vt 0.0625 0.4375
vt 0.0625 0.125
vt 0 0.125
vt 0 0.125
vt 0.0625 0.125
vt 0.0625 0.0625
vt 0 0.0625
vn 0 0 -1
vn 0.7071067811865475 -0.7071067811865476 0
vn 0 0 1
vn -0.7071067811865475 0.7071067811865476 0
vn -0.7071067811865476 -0.7071067811865475 0
usemtl m_78d598ba-5eed-777f-b014-8d39a4f60354
f 4/4/1 7/3/1 5/2/1 2/1/1
f 3/8/2 4/7/2 2/6/2 1/5/2
f 8/12/3 3/11/3 1/10/3 6/9/3
f 7/16/4 8/15/4 6/14/4 5/13/4
f 7/20/5 4/19/5 3/18/5 8/17/5
o needle
v 0.5 0.5627218749999999 0.015403125000000073
v 0.5 0.5627218749999999 -0.015846874999999927
v 0.5 0.5314718749999999 0.015403125000000073
v 0.5 0.5314718749999999 -0.015846874999999927
v 0.0625 0.5627218749999999 -0.015846874999999927
v 0.0625 0.5627218749999999 0.015403125000000073
v 0.0625 0.5314718749999999 -0.015846874999999927
v 0.0625 0.5314718749999999 0.015403125000000073
vt 0.3125 0.1875
vt 0.3125 0.625
vt 0.34375 0.625
vt 0.34375 0.1875
vt 0.34375 0.625
vt 0.34375 0.59375
vt 0.3125 0.59375
vt 0.3125 0.625
vt 0.34375 0.625
vt 0.34375 0.1875
vt 0.3125 0.1875
vt 0.3125 0.625
vt 0.34375 0.625
vt 0.34375 0.59375
vt 0.3125 0.59375
vt 0.3125 0.625
vt 0.34375 0.5625
vt 0.34375 0.125
vt 0.3125 0.125
vt 0.3125 0.5625
vt 0.34375 0.5625
vt 0.34375 0.125
vt 0.3125 0.125
vt 0.3125 0.5625
vn 0 0 -1
vn 1 0 0
vn 0 0 1
vn -1 0 0
vn 0 1 0
vn 0 -1 0
usemtl m_78d598ba-5eed-777f-b014-8d39a4f60354
f 12/24/6 15/23/6 13/22/6 10/21/6
f 11/28/7 12/27/7 10/26/7 9/25/7
f 16/32/8 11/31/8 9/30/8 14/29/8
f 15/36/9 16/35/9 14/34/9 13/33/9
f 14/40/10 9/39/10 10/38/10 13/37/10
f 15/44/11 12/43/11 11/42/11 16/41/11
o body
v 0.0625 0.546875 0.06629126073623884
v 0.0625 0.6131662607362388 6.938893903907228e-18
v 0.0625 0.4805837392637612 -6.938893903907228e-18
v 0.0625 0.546875 -0.06629126073623884
v -0.3125 0.6131662607362388 6.938893903907228e-18
v -0.3125 0.546875 0.06629126073623884
v -0.3125 0.546875 -0.06629126073623884
v -0.3125 0.4805837392637612 -6.938893903907228e-18
vt 0.25 0.625
vt 0.25 1
vt 0.125 1
vt 0.125 0.625
vt 0.125 0.5
vt 0.125 0.625
vt 0.25 0.625
vt 0.25 0.5
vt 0 0.625
vt 0 1
vt 0.125 1
vt 0.125 0.625
vt 0 0.5
vt 0 0.625
vt 0.125 0.625
vt 0.125 0.5
vt 0.25 1
vt 0.25 0.625
vt 0.125 0.625
vt 0.125 1
vt 0.125 1
vt 0.125 0.625
vt 0 0.625
vt 0 1
vn 0 0.7071067811865476 -0.7071067811865475
vn 1 0 0
vn 0 -0.7071067811865476 0.7071067811865475
vn -1 0 0
vn 0 0.7071067811865475 0.7071067811865476
vn 0 -0.7071067811865475 -0.7071067811865476
usemtl m_78d598ba-5eed-777f-b014-8d39a4f60354
f 20/48/12 23/47/12 21/46/12 18/45/12
f 19/52/13 20/51/13 18/50/13 17/49/13
f 24/56/14 19/55/14 17/54/14 22/53/14
f 23/60/15 24/59/15 22/58/15 21/57/15
f 22/64/16 17/63/16 18/62/16 21/61/16
f 23/68/17 20/67/17 19/66/17 24/65/17
o vial
v -0.3187500000000001 0.5910691738241592 0.03125
v -0.3187500000000001 0.5910691738241592 -0.03125
v -0.36294417382415933 0.546875 0.03125
v -0.36294417382415933 0.546875 -0.03125
v -0.4071383476483186 0.6794575214724777 -0.03125
v -0.4071383476483186 0.6794575214724777 0.03125
v -0.4513325214724778 0.6352633476483185 -0.03125
v -0.4513325214724778 0.6352633476483185 0.03125
vt 0.1875 0.28125
vt 0.1875 0.40625
vt 0.125 0.40625
vt 0.125 0.28125
vt 0.125 0.40625
vt 0.125 0.28125
vt 0.1875 0.28125
vt 0.1875 0.40625
vt 0.125 0.40625
vt 0.125 0.28125
vt 0.1875 0.28125
vt 0.1875 0.40625
vt 0.125 0.40625
vt 0.125 0.28125
vt 0.1875 0.28125
vt 0.1875 0.40625
vn 0 0 -1
vn 0 0 1
vn 0.7071067811865476 0.7071067811865475 0
vn -0.7071067811865476 -0.7071067811865475 0
usemtl m_78d598ba-5eed-777f-b014-8d39a4f60354
f 28/72/18 31/71/18 29/70/18 26/69/18
f 32/76/19 27/75/19 25/74/19 30/73/19
f 30/80/20 25/79/20 26/78/20 29/77/20
f 31/84/21 28/83/21 27/82/21 32/81/21
o vial top
v -0.4291378629345951 0.7014570367587543 0.03125
v -0.4291378629345951 0.7014570367587543 -0.03125
v -0.4070407760225155 0.6793599498466746 0.03125
v -0.4070407760225155 0.6793599498466746 -0.03125
v -0.47333203675875435 0.657262862934595 -0.03125
v -0.47333203675875435 0.657262862934595 0.03125
v -0.4512349498466747 0.6351657760225154 -0.03125
v -0.4512349498466747 0.6351657760225154 0.03125
vt 0.03125 0.625
vt 0.09375 0.625
vt 0.09375 0.59375
vt 0.03125 0.59375
vt 0.03125 0.625
vt 0.09375 0.625
vt 0.09375 0.59375
vt 0.03125 0.59375
vt 0.03125 0.625
vt 0.09375 0.625
vt 0.09375 0.59375
vt 0.03125 0.59375
vt 0.03125 0.625
vt 0.09375 0.625
vt 0.09375 0.59375
vt 0.03125 0.59375
vt 0.03125 0.59375
vt 0.09375 0.59375
vt 0.09375 0.5
vt 0.03125 0.5
vt 0.03125 0.59375
vt 0.09375 0.59375
vt 0.09375 0.5
vt 0.03125 0.5
vn 0 0 -1
vn 0.7071067811865475 0.7071067811865476 0
vn 0 0 1
vn -0.7071067811865475 -0.7071067811865476 0
vn -0.7071067811865476 0.7071067811865475 0
vn 0.7071067811865476 -0.7071067811865475 0
usemtl m_78d598ba-5eed-777f-b014-8d39a4f60354
f 36/88/22 39/87/22 37/86/22 34/85/22
f 35/92/23 36/91/23 34/90/23 33/89/23
f 40/96/24 35/95/24 33/94/24 38/93/24
f 39/100/25 40/99/25 38/98/25 37/97/25
f 38/104/26 33/103/26 34/102/26 37/101/26
f 39/108/27 36/107/27 35/106/27 40/105/27
o vial bottom
v -0.31865242837419705 0.5909716021983562 0.03125
v -0.31865242837419705 0.5909716021983562 -0.03125
v -0.2965553414621174 0.5688745152862766 0.03125
v -0.2965553414621174 0.5688745152862766 -0.03125
v -0.3628466021983563 0.546777428374197 -0.03125
v -0.3628466021983563 0.546777428374197 0.03125
v -0.34074951528627667 0.5246803414621174 -0.03125
v -0.34074951528627667 0.5246803414621174 0.03125
vt 0.125 0.28125
vt 0.1875 0.28125
vt 0.1875 0.25
vt 0.125 0.25
vt 0.125 0.28125
vt 0.1875 0.28125
vt 0.1875 0.25
vt 0.125 0.25
vt 0.125 0.28125
vt 0.1875 0.28125
vt 0.1875 0.25
vt 0.125 0.25
vt 0.125 0.28125
vt 0.1875 0.28125
vt 0.1875 0.25
vt 0.125 0.25
vt 0.125 0.25
vt 0.1875 0.25
vt 0.1875 0.1875
vt 0.125 0.1875
vn 0 0 -1
vn 0.7071067811865475 0.7071067811865476 0
vn 0 0 1
vn -0.7071067811865475 -0.7071067811865476 0
vn -0.7071067811865476 0.7071067811865475 0
usemtl m_78d598ba-5eed-777f-b014-8d39a4f60354
f 44/112/28 47/111/28 45/110/28 42/109/28
f 43/116/29 44/115/29 42/114/29 41/113/29
f 48/120/30 43/119/30 41/118/30 46/117/30
f 47/124/31 48/123/31 46/122/31 45/121/31
f 46/128/32 41/127/32 42/126/32 45/125/32
o handle guard
v -0.21874999999999967 0.5000000000000002 0
v -0.21874999999999967 0.5000000000000002 0
v -0.21874999999999967 0.3125000000000001 0
v -0.21874999999999967 0.3125000000000001 0
v -0.4687499999999998 0.5000000000000002 0
v -0.4687499999999998 0.5000000000000002 0
v -0.4687499999999998 0.3125000000000001 0
v -0.4687499999999998 0.3125000000000001 0
vt 0.5 1
vt 0.5 0.75
vt 0.3125 0.75
vt 0.3125 1
vt 0.5 0.75
vt 0.5 1
vt 0.3125 1
vt 0.3125 0.75
vn 0 0 -1
vn 0 0 1
usemtl m_78d598ba-5eed-777f-b014-8d39a4f60354
f 52/132/33 55/131/33 53/130/33 50/129/33
f 56/136/34 51/135/34 49/134/34 54/133/34
o saw
v 0.15625 0.5000000000000001 0
v 0.15625 0.5000000000000001 0
v 0.15625 0.3750000000000001 0
v 0.15625 0.3750000000000001 0
v -0.21875 0.5000000000000001 0
v -0.21875 0.5000000000000001 0
v -0.21875 0.3750000000000001 0
v -0.21875 0.3750000000000001 0
vt 0.375 0.25
vt 0.375 0.625
vt 0.5 0.625
vt 0.5 0.25
vt 0.375 0.625
vt 0.375 0.25
vt 0.5 0.25
vt 0.5 0.625
vn 0 0 -1
vn 0 0 1
usemtl m_78d598ba-5eed-777f-b014-8d39a4f60354
f 60/140/35 63/139/35 61/138/35 58/137/35
f 64/144/36 59/143/36 57/142/36 62/141/36